<mxfile host="65bd71144e" pages="3">
    <diagram id="Y0s-QTVM3HODt4kk8Pgk" name="Notazione">
        <mxGraphModel dx="-345" dy="479" grid="1" gridSize="10" guides="1" tooltips="1" connect="1" arrows="1" fold="1" page="1" pageScale="1" pageWidth="827" pageHeight="1169" math="0" shadow="0">
            <root>
                <mxCell id="X0lNm1rgNpbfEfuh6dac-0"/>
                <mxCell id="X0lNm1rgNpbfEfuh6dac-1" parent="X0lNm1rgNpbfEfuh6dac-0"/>
                <mxCell id="c8eom063F0OqwWxzlpXB-0" value="OFF&lt;br&gt;(all leds off)" style="rounded=1;whiteSpace=wrap;html=1;arcSize=24;fillColor=#f5f5f5;strokeColor=#666666;shadow=0;comic=0;labelBackgroundColor=none;fontFamily=Verdana;fontSize=12;align=center;fontColor=#333333;" parent="X0lNm1rgNpbfEfuh6dac-1" vertex="1">
                    <mxGeometry x="854" y="50" width="120" height="60" as="geometry"/>
                </mxCell>
                <mxCell id="v1z97-7tfk8VhAEsiiKw-0" value="ON&lt;br&gt;(green led on and 0W power)" style="rounded=1;whiteSpace=wrap;html=1;arcSize=24;fillColor=#d5e8d4;strokeColor=#82b366;shadow=0;comic=0;labelBackgroundColor=none;fontFamily=Verdana;fontSize=12;align=center;" parent="X0lNm1rgNpbfEfuh6dac-1" vertex="1">
                    <mxGeometry x="854" y="130" width="120" height="60" as="geometry"/>
                </mxCell>
                <mxCell id="CRVcPAL-VIsrZHcT2oMM-0" value="ACTIVE&lt;br&gt;(yellow led blinking)" style="rounded=1;whiteSpace=wrap;html=1;arcSize=24;fillColor=#fff2cc;strokeColor=#d6b656;shadow=0;comic=0;labelBackgroundColor=none;fontFamily=Verdana;fontSize=12;align=center;" parent="X0lNm1rgNpbfEfuh6dac-1" vertex="1">
                    <mxGeometry x="854" y="290" width="120" height="60" as="geometry"/>
                </mxCell>
                <mxCell id="bLrk6bMStb_IO9k1gdFg-0" value="ALERTING&lt;br&gt;(red led on)" style="rounded=1;whiteSpace=wrap;html=1;arcSize=24;fillColor=#f8cecc;strokeColor=#b85450;shadow=0;comic=0;labelBackgroundColor=none;fontFamily=Verdana;fontSize=12;align=center;" parent="X0lNm1rgNpbfEfuh6dac-1" vertex="1">
                    <mxGeometry x="854" y="370" width="120" height="60" as="geometry"/>
                </mxCell>
                <mxCell id="bLrk6bMStb_IO9k1gdFg-1" value="In questo stato il fornello è spento e tutti i led sono spenti." style="text;html=1;strokeColor=none;fillColor=none;align=center;verticalAlign=middle;whiteSpace=wrap;rounded=0;" parent="X0lNm1rgNpbfEfuh6dac-1" vertex="1">
                    <mxGeometry x="983" y="70" width="320" height="20" as="geometry"/>
                </mxCell>
                <mxCell id="bLrk6bMStb_IO9k1gdFg-2" value="In questo stato il fornello è acceso ma non è attivo. Il led verde è acceso e gli altri sono spenti." style="text;html=1;resizable=0;points=[];autosize=1;align=left;verticalAlign=top;spacingTop=-4;" parent="X0lNm1rgNpbfEfuh6dac-1" vertex="1">
                    <mxGeometry x="987" y="150" width="520" height="20" as="geometry"/>
                </mxCell>
                <mxCell id="bLrk6bMStb_IO9k1gdFg-3" value="In questo stato il fornello è attivo, con potenza &lt;i&gt;current_power&lt;/i&gt;. Il led giallo lampeggia, mentre gli altri sono spenti." style="text;html=1;resizable=0;points=[];autosize=1;align=left;verticalAlign=top;spacingTop=-4;" parent="X0lNm1rgNpbfEfuh6dac-1" vertex="1">
                    <mxGeometry x="987" y="310" width="610" height="20" as="geometry"/>
                </mxCell>
                <mxCell id="bLrk6bMStb_IO9k1gdFg-4" value="In questo stato il fornello è in allarme a causa della rimozione della pentola mentre era attivo. Il led rosso è acceso mentre gli&lt;br&gt;altri sono spenti." style="text;html=1;resizable=0;points=[];autosize=1;align=left;verticalAlign=top;spacingTop=-4;" parent="X0lNm1rgNpbfEfuh6dac-1" vertex="1">
                    <mxGeometry x="983" y="385" width="680" height="30" as="geometry"/>
                </mxCell>
                <mxCell id="bLrk6bMStb_IO9k1gdFg-5" value="&lt;b&gt;Stati&lt;/b&gt;" style="text;html=1;strokeColor=none;fillColor=none;align=center;verticalAlign=middle;whiteSpace=wrap;rounded=0;" parent="X0lNm1rgNpbfEfuh6dac-1" vertex="1">
                    <mxGeometry x="844" y="20" width="40" height="20" as="geometry"/>
                </mxCell>
                <mxCell id="CAl5_wo-_BhZVUnbXjXl-0" value="&lt;b&gt;Eventi&lt;/b&gt;" style="text;html=1;resizable=0;points=[];autosize=1;align=left;verticalAlign=top;spacingTop=-4;" parent="X0lNm1rgNpbfEfuh6dac-1" vertex="1">
                    <mxGeometry x="854" y="460" width="50" height="20" as="geometry"/>
                </mxCell>
                <mxCell id="CAl5_wo-_BhZVUnbXjXl-1" value="&lt;ul&gt;&lt;li&gt;onoff_button_pressed, indica che è stato premuto il pulsante che consente di accendere /spegnere il fornello,&lt;/li&gt;&lt;li&gt;increase_button_pressed, indica che è stato premuto il pulsante che consente di aumentare la potenza,&lt;/li&gt;&lt;li&gt;decrease_button_pressed, indica che è stato premuto il pulsante che condente di diminuire la potenza,&lt;/li&gt;&lt;li&gt;pot_removed, indica che è stata rimossa la pentola,&lt;/li&gt;&lt;li&gt;change_timer_elapsed, indica che sono passati 5 secondi senza che si siano verificati cambiamenti di potenza,&lt;/li&gt;&lt;li&gt;pot_removed_timer_elapsed, indica che il timer di dieci secondi a seguito della rimozione della pentola è scaduto e la pentola non è stata riposizionata.&lt;/li&gt;&lt;/ul&gt;" style="text;html=1;strokeColor=none;fillColor=none;align=left;verticalAlign=middle;whiteSpace=wrap;rounded=0;" parent="X0lNm1rgNpbfEfuh6dac-1" vertex="1">
                    <mxGeometry x="827" y="520" width="630" height="30" as="geometry"/>
                </mxCell>
                <mxCell id="EFGMdo1g6EE3IHw2oAfx-0" value="&lt;b&gt;Variabili&lt;/b&gt;" style="text;html=1;resizable=0;points=[];autosize=1;align=left;verticalAlign=top;spacingTop=-4;" parent="X0lNm1rgNpbfEfuh6dac-1" vertex="1">
                    <mxGeometry x="854" y="620" width="60" height="20" as="geometry"/>
                </mxCell>
                <mxCell id="EFGMdo1g6EE3IHw2oAfx-1" value="&lt;ul&gt;&lt;li&gt;&lt;i&gt;current_power&lt;/i&gt;, contiene il valore corrente di potenza che può assumere uno dei seguenti valori:&lt;/li&gt;&lt;ul&gt;&lt;li&gt;NO_POWER = 0W,&lt;/li&gt;&lt;li&gt;LOW_POWER = 300W,&lt;/li&gt;&lt;li&gt;MEDIUM_POWER = 500W,&lt;/li&gt;&lt;li&gt;HIGH_POWER = 1000W,&lt;/li&gt;&lt;li&gt;MAXIMUM POWER = 1500W,&lt;/li&gt;&lt;/ul&gt;&lt;li&gt;&lt;i&gt;selected_power&lt;/i&gt;, contiene il valore di potenza selezionato, in attesa che il change_timer_elapsed scada&lt;/li&gt;&lt;li&gt;&lt;i&gt;pot_is_present&lt;/i&gt;, indica la presenza/assenza della pentola&lt;/li&gt;&lt;/ul&gt;" style="text;html=1;resizable=0;points=[];autosize=1;align=left;verticalAlign=top;spacingTop=-4;" parent="X0lNm1rgNpbfEfuh6dac-1" vertex="1">
                    <mxGeometry x="827" y="630" width="600" height="140" as="geometry"/>
                </mxCell>
                <mxCell id="50pytDiKpnOtKsPjOUB7-0" value="POWER TUNING&lt;br&gt;(green led on and 0W power)" style="rounded=1;whiteSpace=wrap;html=1;arcSize=24;fillColor=#d5e8d4;strokeColor=#82b366;shadow=0;comic=0;labelBackgroundColor=none;fontFamily=Verdana;fontSize=12;align=center;" parent="X0lNm1rgNpbfEfuh6dac-1" vertex="1">
                    <mxGeometry x="854" y="210" width="120" height="60" as="geometry"/>
                </mxCell>
                <mxCell id="50pytDiKpnOtKsPjOUB7-3" value="In questo stato si sta regolando la potenza che deve essere erogata dal fornello. Il led verde è acceso e gli altri sono spenti." style="text;html=1;resizable=0;points=[];autosize=1;align=left;verticalAlign=top;spacingTop=-4;" parent="X0lNm1rgNpbfEfuh6dac-1" vertex="1">
                    <mxGeometry x="987" y="230" width="670" height="20" as="geometry"/>
                </mxCell>
            </root>
        </mxGraphModel>
    </diagram>
    <diagram name="Diagramma di stato" id="58cdce13-f638-feb5-8d6f-7d28b1aa9fa0">
        <mxGraphModel dx="482" dy="479" grid="1" gridSize="10" guides="1" tooltips="1" connect="1" arrows="1" fold="1" page="1" pageScale="1" pageWidth="1100" pageHeight="850" background="none" math="0" shadow="0">
            <root>
                <mxCell id="0"/>
                <mxCell id="1" parent="0"/>
                <mxCell id="382b91b5511bd0f7-1" value="" style="ellipse;html=1;shape=startState;rounded=1;shadow=0;comic=0;labelBackgroundColor=none;fontFamily=Verdana;fontSize=12;align=center;direction=south;" parent="1" vertex="1">
                    <mxGeometry x="884" y="125" width="30" height="30" as="geometry"/>
                </mxCell>
                <mxCell id="SC0lKbbpHvzSmaq9ih_h-40" style="edgeStyle=orthogonalEdgeStyle;rounded=0;orthogonalLoop=1;jettySize=auto;html=1;exitX=0;exitY=0.25;exitDx=0;exitDy=0;entryX=1;entryY=0.25;entryDx=0;entryDy=0;" parent="1" source="382b91b5511bd0f7-6" target="4" edge="1">
                    <mxGeometry relative="1" as="geometry"/>
                </mxCell>
                <mxCell id="SC0lKbbpHvzSmaq9ih_h-42" value="&lt;span style=&quot;text-align: left ; white-space: normal ; background-color: rgb(248 , 249 , 250)&quot;&gt;onoff_button_pressed&lt;br&gt;&lt;/span&gt;" style="text;html=1;resizable=0;points=[];align=center;verticalAlign=middle;labelBackgroundColor=#ffffff;" parent="SC0lKbbpHvzSmaq9ih_h-40" vertex="1" connectable="0">
                    <mxGeometry x="0.005" relative="1" as="geometry">
                        <mxPoint x="2" y="-20" as="offset"/>
                    </mxGeometry>
                </mxCell>
                <mxCell id="382b91b5511bd0f7-6" value="OFF" style="rounded=1;whiteSpace=wrap;html=1;arcSize=24;fillColor=#f5f5f5;strokeColor=#666666;shadow=0;comic=0;labelBackgroundColor=none;fontFamily=Verdana;fontSize=12;align=center;fontColor=#333333;" parent="1" vertex="1">
                    <mxGeometry x="839" y="180" width="120" height="60" as="geometry"/>
                </mxCell>
                <mxCell id="2a3bc250acf0617d-9" style="edgeStyle=orthogonalEdgeStyle;html=1;labelBackgroundColor=none;endArrow=open;endSize=8;fontFamily=Verdana;fontSize=12;align=left;entryX=0.5;entryY=0;entryDx=0;entryDy=0;" parent="1" source="382b91b5511bd0f7-1" target="382b91b5511bd0f7-6" edge="1">
                    <mxGeometry relative="1" as="geometry"/>
                </mxCell>
                <mxCell id="SC0lKbbpHvzSmaq9ih_h-41" style="edgeStyle=orthogonalEdgeStyle;rounded=0;orthogonalLoop=1;jettySize=auto;html=1;exitX=1;exitY=0.75;exitDx=0;exitDy=0;entryX=0;entryY=0.75;entryDx=0;entryDy=0;" parent="1" source="4" target="382b91b5511bd0f7-6" edge="1">
                    <mxGeometry relative="1" as="geometry"/>
                </mxCell>
                <mxCell id="2cz2k41cAF64X4vZjpbY-40" value="&lt;span style=&quot;text-align: left ; white-space: normal ; background-color: rgb(248 , 249 , 250)&quot;&gt;onoff_button_pressed(1,sec)&lt;br&gt;&lt;/span&gt;" style="text;html=1;resizable=0;points=[];align=center;verticalAlign=middle;labelBackgroundColor=#ffffff;" parent="SC0lKbbpHvzSmaq9ih_h-41" vertex="1" connectable="0">
                    <mxGeometry x="0.0117" y="-1" relative="1" as="geometry">
                        <mxPoint x="-3" y="14" as="offset"/>
                    </mxGeometry>
                </mxCell>
                <mxCell id="GKgahxUYYJm4mcgYMw2S-40" style="edgeStyle=orthogonalEdgeStyle;rounded=0;orthogonalLoop=1;jettySize=auto;html=1;exitX=0.5;exitY=1;exitDx=0;exitDy=0;entryX=0;entryY=0.25;entryDx=0;entryDy=0;" parent="1" source="4" target="40" edge="1">
                    <mxGeometry relative="1" as="geometry"/>
                </mxCell>
                <mxCell id="GKgahxUYYJm4mcgYMw2S-41" value="increase_button_pressed(1,sec)&lt;br&gt;AND&lt;br&gt;&lt;i&gt;pot_is_present&lt;/i&gt;" style="text;html=1;resizable=0;points=[];align=center;verticalAlign=middle;labelBackgroundColor=#ffffff;" parent="GKgahxUYYJm4mcgYMw2S-40" vertex="1" connectable="0">
                    <mxGeometry x="0.67" relative="1" as="geometry">
                        <mxPoint x="-60" y="-35" as="offset"/>
                    </mxGeometry>
                </mxCell>
                <mxCell id="4" value="ON" style="rounded=1;whiteSpace=wrap;html=1;arcSize=24;fillColor=#d5e8d4;strokeColor=#82b366;shadow=0;comic=0;labelBackgroundColor=none;fontFamily=Verdana;fontSize=12;align=center;" parent="1" vertex="1">
                    <mxGeometry x="120" y="180" width="120" height="60" as="geometry"/>
                </mxCell>
                <mxCell id="Knc4Fxu-0Whu3SdbP-AA-40" style="edgeStyle=orthogonalEdgeStyle;rounded=0;orthogonalLoop=1;jettySize=auto;html=1;exitX=0.5;exitY=0;exitDx=0;exitDy=0;entryX=0.5;entryY=1;entryDx=0;entryDy=0;" parent="1" source="5" target="382b91b5511bd0f7-6" edge="1">
                    <mxGeometry relative="1" as="geometry"/>
                </mxCell>
                <mxCell id="Knc4Fxu-0Whu3SdbP-AA-41" value="&lt;span style=&quot;text-align: left ; white-space: normal ; background-color: rgb(248 , 249 , 250)&quot;&gt;onoff_button_pressed(1,sec)&lt;/span&gt;" style="text;html=1;resizable=0;points=[];align=center;verticalAlign=middle;labelBackgroundColor=#ffffff;" parent="Knc4Fxu-0Whu3SdbP-AA-40" vertex="1" connectable="0">
                    <mxGeometry x="0.0353" y="-1" relative="1" as="geometry">
                        <mxPoint x="-90" y="66" as="offset"/>
                    </mxGeometry>
                </mxCell>
                <mxCell id="xuFl7tMfDvvaqW33Po0E-40" style="edgeStyle=orthogonalEdgeStyle;rounded=0;orthogonalLoop=1;jettySize=auto;html=1;exitX=0.5;exitY=1;exitDx=0;exitDy=0;entryX=0.25;entryY=1;entryDx=0;entryDy=0;" parent="1" source="5" target="4" edge="1">
                    <mxGeometry relative="1" as="geometry">
                        <Array as="points">
                            <mxPoint x="899" y="710"/>
                            <mxPoint x="100" y="710"/>
                            <mxPoint x="100" y="380"/>
                            <mxPoint x="150" y="380"/>
                        </Array>
                    </mxGeometry>
                </mxCell>
                <mxCell id="xuFl7tMfDvvaqW33Po0E-41" value="&lt;span style=&quot;text-align: left ; white-space: normal ; background-color: rgb(248 , 249 , 250)&quot;&gt;pot_removed_timer_elapsed AND NOT&amp;nbsp;&lt;i&gt;pot_is_present&lt;/i&gt;&lt;/span&gt;" style="text;html=1;resizable=0;points=[];align=center;verticalAlign=middle;labelBackgroundColor=#ffffff;" parent="xuFl7tMfDvvaqW33Po0E-40" vertex="1" connectable="0">
                    <mxGeometry x="-0.3449" y="4" relative="1" as="geometry">
                        <mxPoint x="26" y="16" as="offset"/>
                    </mxGeometry>
                </mxCell>
                <mxCell id="2oalyaIlT3qXymuXi-MS-40" style="edgeStyle=orthogonalEdgeStyle;rounded=0;orthogonalLoop=1;jettySize=auto;html=1;exitX=0;exitY=0.25;exitDx=0;exitDy=0;entryX=1;entryY=0.25;entryDx=0;entryDy=0;" parent="1" source="5" target="39" edge="1">
                    <mxGeometry relative="1" as="geometry"/>
                </mxCell>
                <mxCell id="2oalyaIlT3qXymuXi-MS-41" value="&lt;i&gt;pot_is_present&lt;/i&gt;&amp;nbsp;AND NOT&amp;nbsp;&amp;nbsp;&lt;span style=&quot;text-align: left ; white-space: normal ; background-color: rgb(248 , 249 , 250)&quot;&gt;pot_removed_timer_elapsed&amp;nbsp;&lt;/span&gt;" style="text;html=1;resizable=0;points=[];align=center;verticalAlign=middle;labelBackgroundColor=#ffffff;" parent="2oalyaIlT3qXymuXi-MS-40" vertex="1" connectable="0">
                    <mxGeometry x="-0.7362" y="2" relative="1" as="geometry">
                        <mxPoint x="-100" y="-17" as="offset"/>
                    </mxGeometry>
                </mxCell>
                <mxCell id="5" value="ALERTING" style="rounded=1;whiteSpace=wrap;html=1;arcSize=24;fillColor=#f8cecc;strokeColor=#b85450;shadow=0;comic=0;labelBackgroundColor=none;fontFamily=Verdana;fontSize=12;align=center;" parent="1" vertex="1">
                    <mxGeometry x="839" y="580" width="120" height="60" as="geometry"/>
                </mxCell>
                <mxCell id="OurE1tUgTqpKHj0nfaq--40" value="&lt;span style=&quot;font-size: 12px&quot;&gt;increase_button_pressed(1,sec)&lt;br&gt;OR&lt;br&gt;&lt;/span&gt;&lt;span style=&quot;font-size: 12px&quot;&gt;decrease_button_pressed(1,sec)&lt;br&gt;&lt;/span&gt;&lt;span style=&quot;font-size: 12px&quot;&gt;AND&lt;br&gt;&lt;i&gt;pot_is_present&lt;/i&gt;&lt;br&gt;&lt;/span&gt;" style="edgeStyle=orthogonalEdgeStyle;rounded=0;orthogonalLoop=1;jettySize=auto;html=1;exitX=0.25;exitY=0;exitDx=0;exitDy=0;entryX=0;entryY=0.75;entryDx=0;entryDy=0;" parent="1" source="39" target="40" edge="1">
                    <mxGeometry x="0.1753" y="-45" relative="1" as="geometry">
                        <mxPoint as="offset"/>
                    </mxGeometry>
                </mxCell>
                <mxCell id="1HdUEIEivGZ4oWgs2qGL-40" style="edgeStyle=orthogonalEdgeStyle;rounded=0;orthogonalLoop=1;jettySize=auto;html=1;exitX=1;exitY=0.75;exitDx=0;exitDy=0;" parent="1" source="39" edge="1">
                    <mxGeometry relative="1" as="geometry">
                        <mxPoint x="839" y="630" as="targetPoint"/>
                        <Array as="points">
                            <mxPoint x="240" y="630"/>
                            <mxPoint x="839" y="630"/>
                        </Array>
                    </mxGeometry>
                </mxCell>
                <mxCell id="1HdUEIEivGZ4oWgs2qGL-41" value="pot_removed" style="text;html=1;resizable=0;points=[];align=center;verticalAlign=middle;labelBackgroundColor=#ffffff;" parent="1HdUEIEivGZ4oWgs2qGL-40" vertex="1" connectable="0">
                    <mxGeometry x="0.2588" y="-2" relative="1" as="geometry">
                        <mxPoint x="-205" y="-12" as="offset"/>
                    </mxGeometry>
                </mxCell>
                <mxCell id="Knc4Fxu-0Whu3SdbP-AA-44" style="edgeStyle=orthogonalEdgeStyle;rounded=0;orthogonalLoop=1;jettySize=auto;html=1;exitX=0.5;exitY=1;exitDx=0;exitDy=0;entryX=0.75;entryY=1;entryDx=0;entryDy=0;" parent="1" source="39" target="382b91b5511bd0f7-6" edge="1">
                    <mxGeometry relative="1" as="geometry">
                        <mxPoint x="1000" y="460" as="targetPoint"/>
                        <Array as="points">
                            <mxPoint x="180" y="660"/>
                            <mxPoint x="980" y="660"/>
                            <mxPoint x="980" y="560"/>
                            <mxPoint x="929" y="560"/>
                        </Array>
                    </mxGeometry>
                </mxCell>
                <mxCell id="Knc4Fxu-0Whu3SdbP-AA-45" value="&lt;span style=&quot;text-align: left ; white-space: normal ; background-color: rgb(248 , 249 , 250)&quot;&gt;onoff_button_pressed(1,sec)&lt;/span&gt;" style="text;html=1;resizable=0;points=[];align=center;verticalAlign=middle;labelBackgroundColor=#ffffff;" parent="Knc4Fxu-0Whu3SdbP-AA-44" vertex="1" connectable="0">
                    <mxGeometry x="0.8499" y="-1" relative="1" as="geometry">
                        <mxPoint x="-390" y="344" as="offset"/>
                    </mxGeometry>
                </mxCell>
                <mxCell id="39" value="ACTIVE" style="rounded=1;whiteSpace=wrap;html=1;arcSize=24;fillColor=#fff2cc;strokeColor=#d6b656;shadow=0;comic=0;labelBackgroundColor=none;fontFamily=Verdana;fontSize=12;align=center;" parent="1" vertex="1">
                    <mxGeometry x="120" y="580" width="120" height="60" as="geometry"/>
                </mxCell>
                <mxCell id="5QP8BMEQmVhD20yOvzZA-40" style="edgeStyle=orthogonalEdgeStyle;rounded=0;orthogonalLoop=1;jettySize=auto;html=1;exitX=0.25;exitY=0;exitDx=0;exitDy=0;entryX=0.75;entryY=1;entryDx=0;entryDy=0;" parent="1" source="40" target="4" edge="1">
                    <mxGeometry relative="1" as="geometry"/>
                </mxCell>
                <mxCell id="5QP8BMEQmVhD20yOvzZA-41" value="(pot_removed AND &lt;i&gt;current_power&lt;/i&gt; == NO_POWER)&lt;br&gt;OR&lt;br&gt;(change_timer_elapsed AND &lt;i&gt;selected_power&lt;/i&gt; == NO_POWER)" style="text;html=1;resizable=0;points=[];align=center;verticalAlign=middle;labelBackgroundColor=#ffffff;" parent="5QP8BMEQmVhD20yOvzZA-40" vertex="1" connectable="0">
                    <mxGeometry x="0.3227" y="-1" relative="1" as="geometry">
                        <mxPoint x="101" y="-29" as="offset"/>
                    </mxGeometry>
                </mxCell>
                <mxCell id="5QP8BMEQmVhD20yOvzZA-42" style="edgeStyle=orthogonalEdgeStyle;rounded=0;orthogonalLoop=1;jettySize=auto;html=1;exitX=0.75;exitY=1;exitDx=0;exitDy=0;entryX=0.25;entryY=0;entryDx=0;entryDy=0;" parent="1" source="40" target="5" edge="1">
                    <mxGeometry relative="1" as="geometry"/>
                </mxCell>
                <mxCell id="5QP8BMEQmVhD20yOvzZA-43" value="pot_removed AND &lt;i&gt;current_power&lt;/i&gt; != NO_POWER" style="text;html=1;resizable=0;points=[];align=center;verticalAlign=middle;labelBackgroundColor=#ffffff;" parent="5QP8BMEQmVhD20yOvzZA-42" vertex="1" connectable="0">
                    <mxGeometry x="0.139" y="-2" relative="1" as="geometry">
                        <mxPoint x="-30" y="8" as="offset"/>
                    </mxGeometry>
                </mxCell>
                <mxCell id="Ws_9NzS6owy0dHaSxztD-40" style="edgeStyle=orthogonalEdgeStyle;rounded=0;orthogonalLoop=1;jettySize=auto;html=1;exitX=0.25;exitY=1;exitDx=0;exitDy=0;entryX=0.75;entryY=0;entryDx=0;entryDy=0;" parent="1" source="40" target="39" edge="1">
                    <mxGeometry relative="1" as="geometry">
                        <mxPoint x="200" y="540" as="targetPoint"/>
                    </mxGeometry>
                </mxCell>
                <mxCell id="Ws_9NzS6owy0dHaSxztD-41" value="change_timer_elapsed&lt;br&gt;AND&lt;br&gt;&lt;i&gt;selected_power&lt;/i&gt; != NO_POWER&lt;br&gt;AND&lt;br&gt;&lt;i&gt;pot_is_present&lt;/i&gt;" style="text;html=1;resizable=0;points=[];align=center;verticalAlign=middle;labelBackgroundColor=#ffffff;" parent="Ws_9NzS6owy0dHaSxztD-40" vertex="1" connectable="0">
                    <mxGeometry x="-0.1106" y="1" relative="1" as="geometry">
                        <mxPoint x="26" y="39" as="offset"/>
                    </mxGeometry>
                </mxCell>
                <mxCell id="Knc4Fxu-0Whu3SdbP-AA-42" style="edgeStyle=orthogonalEdgeStyle;rounded=0;orthogonalLoop=1;jettySize=auto;html=1;exitX=1;exitY=0.5;exitDx=0;exitDy=0;entryX=0.25;entryY=1;entryDx=0;entryDy=0;" parent="1" source="40" target="382b91b5511bd0f7-6" edge="1">
                    <mxGeometry relative="1" as="geometry">
                        <mxPoint x="860" y="240" as="targetPoint"/>
                        <Array as="points">
                            <mxPoint x="869" y="410"/>
                        </Array>
                    </mxGeometry>
                </mxCell>
                <mxCell id="Knc4Fxu-0Whu3SdbP-AA-43" value="&lt;span style=&quot;text-align: left ; white-space: normal ; background-color: rgb(248 , 249 , 250)&quot;&gt;onoff_button_pressed(1,sec)&lt;/span&gt;" style="text;html=1;resizable=0;points=[];align=center;verticalAlign=middle;labelBackgroundColor=#ffffff;" parent="Knc4Fxu-0Whu3SdbP-AA-42" vertex="1" connectable="0">
                    <mxGeometry x="-0.2303" y="1" relative="1" as="geometry">
                        <mxPoint x="-20" y="11" as="offset"/>
                    </mxGeometry>
                </mxCell>
                <mxCell id="40" value="POWER&lt;br&gt;TUNING" style="rounded=1;whiteSpace=wrap;html=1;arcSize=24;fillColor=#d5e8d4;strokeColor=#82b366;shadow=0;comic=0;labelBackgroundColor=none;fontFamily=Verdana;fontSize=12;align=center;" parent="1" vertex="1">
                    <mxGeometry x="480" y="380" width="120" height="60" as="geometry"/>
                </mxCell>
            </root>
        </mxGraphModel>
    </diagram>
    <diagram id="4Lm51YfdhKSgLQjM2Cq0" name="Casi d'uso">
        <mxGraphModel dx="482" dy="479" grid="1" gridSize="10" guides="1" tooltips="1" connect="1" arrows="1" fold="1" page="1" pageScale="1" pageWidth="827" pageHeight="1169" math="0" shadow="0">
            <root>
                <mxCell id="Pypnfq7Q6pAPBb5qQC_u-0"/>
                <mxCell id="Pypnfq7Q6pAPBb5qQC_u-1" parent="Pypnfq7Q6pAPBb5qQC_u-0"/>
                <mxCell id="NSaDIL-O8tRrLI7XKqJ7-0" value="1" style="ellipse;whiteSpace=wrap;html=1;aspect=fixed;align=center;" parent="Pypnfq7Q6pAPBb5qQC_u-1" vertex="1">
                    <mxGeometry x="130" y="70" width="20" height="20" as="geometry"/>
                </mxCell>
            </root>
        </mxGraphModel>
    </diagram>
</mxfile>